<svg width="33" height="33" viewBox="0 0 33 33" fill="none" xmlns="http://www.w3.org/2000/svg">
<path d="M27.5 11.9487V5.49998H21.0513L16.5 0.94873L11.9488 5.49998H5.50001V11.9487L0.948761 16.5L5.50001 21.0512V27.5H11.9488L16.5 32.0512L21.0513 27.5H27.5V21.0512L32.0513 16.5L27.5 11.9487ZM16.5 24.75C15.2763 24.75 14.1075 24.475 13.0625 23.9937C15.895 22.6875 17.875 19.8275 17.875 16.5C17.875 13.1725 15.895 10.3125 13.0625 9.00623C14.1075 8.52498 15.2763 8.24998 16.5 8.24998C21.0513 8.24998 24.75 11.9487 24.75 16.5C24.75 21.0512 21.0513 24.75 16.5 24.75Z" fill="#6270EF"/>
</svg>
