<svg width="36" height="36" viewBox="0 0 36 36" fill="none" xmlns="http://www.w3.org/2000/svg">
<path d="M11.358 10.1684C10.1245 9.63158 9.60028 8.06842 10.3404 6.93158C11.836 4.65789 14.3339 3 17.6335 3C21.257 3 23.7394 4.68947 25.0038 6.80526C26.0831 8.62105 26.7153 12.0158 25.05 14.5421C23.1998 17.3368 21.4266 18.1895 20.4706 19.9895C20.2393 20.4158 20.1006 20.7632 20.008 21.4737C19.8693 22.6263 18.9441 23.5263 17.8031 23.5263C16.4617 23.5263 15.367 22.3421 15.5211 20.9684C15.6137 20.1632 15.7987 19.3263 16.2304 18.5368C17.4177 16.3421 19.6997 15.0474 21.0257 13.1053C22.4288 11.0684 21.6425 7.26316 17.6644 7.26316C15.8604 7.26316 14.6885 8.22632 13.9638 9.37895C13.4242 10.2789 12.2986 10.5632 11.358 10.1684ZM20.7327 29.8421C20.7327 31.5789 19.345 33 17.649 33C15.9529 33 14.5652 31.5789 14.5652 29.8421C14.5652 28.1053 15.9529 26.6842 17.649 26.6842C19.345 26.6842 20.7327 28.1053 20.7327 29.8421Z" fill="#6270EF"/>
</svg>
