<svg width="30" height="30" viewBox="0 0 30 30" fill="none" xmlns="http://www.w3.org/2000/svg">
<path d="M27.7216 17.305H17.305V27.7216C17.305 28.8675 16.3675 29.805 15.2216 29.805C14.0758 29.805 13.1383 28.8675 13.1383 27.7216V17.305H2.72164C1.57581 17.305 0.638306 16.3675 0.638306 15.2216C0.638306 14.0758 1.57581 13.1383 2.72164 13.1383H13.1383V2.72164C13.1383 1.57581 14.0758 0.638306 15.2216 0.638306C16.3675 0.638306 17.305 1.57581 17.305 2.72164V13.1383H27.7216C28.8675 13.1383 29.805 14.0758 29.805 15.2216C29.805 16.3675 28.8675 17.305 27.7216 17.305Z" fill="white"/>
</svg>
