<svg width="31" height="31" viewBox="0 0 31 31" fill="none" xmlns="http://www.w3.org/2000/svg">
<path d="M7.625 27.5H13.125C13.125 29.0125 11.8875 30.25 10.375 30.25C8.8625 30.25 7.625 29.0125 7.625 27.5ZM4.875 26.125H15.875V23.375H4.875V26.125ZM20.6875 13.0625C20.6875 18.315 17.03 21.12 15.5037 22H5.24625C3.72 21.12 0.0625 18.315 0.0625 13.0625C0.0625 7.37 4.6825 2.75 10.375 2.75C16.0675 2.75 20.6875 7.37 20.6875 13.0625ZM27.3838 10.1337L25.5 11L27.3838 11.8663L28.25 13.75L29.1162 11.8663L31 11L29.1162 10.1337L28.25 8.25L27.3838 10.1337ZM24.125 8.25L25.4175 5.4175L28.25 4.125L25.4175 2.8325L24.125 0L22.8325 2.8325L20 4.125L22.8325 5.4175L24.125 8.25Z" fill="#6270EF"/>
</svg>
