<svg width="125" height="125" viewBox="0 0 125 125" fill="none" xmlns="http://www.w3.org/2000/svg">
<rect width="125" height="125" fill="#6270EF"/>
<path d="M36.6084 56.1968V71.6118H44.3159C45.3722 71.6118 46.3659 71.4149 47.2969 71.021C48.2279 70.6092 49.0425 70.0542 49.7407 69.356C50.439 68.6577 50.985 67.8431 51.3789 66.9121C51.7907 65.9632 51.9966 64.9606 51.9966 63.9043C51.9966 62.848 51.7907 61.8543 51.3789 60.9233C50.985 59.9744 50.439 59.1509 49.7407 58.4526C49.0425 57.7544 48.2279 57.2083 47.2969 56.8145C46.3659 56.4027 45.3722 56.1968 44.3159 56.1968H36.6084ZM36.6084 87H28.9009V48.4893H44.3159C45.7303 48.4893 47.091 48.6772 48.3979 49.0532C49.7049 49.4113 50.9224 49.9305 52.0503 50.6108C53.1961 51.2733 54.2345 52.0789 55.1655 53.0278C56.1144 53.9588 56.9201 54.9972 57.5825 56.1431C58.2629 57.2889 58.7821 58.5153 59.1401 59.8223C59.5161 61.1292 59.7041 62.4899 59.7041 63.9043C59.7041 66.0169 59.3013 68.0132 58.4956 69.8931C57.6899 71.755 56.5889 73.3843 55.1924 74.7808C53.7959 76.1772 52.1577 77.2783 50.2778 78.084C48.4159 78.8896 46.4285 79.2925 44.3159 79.2925H36.6084V87Z" fill="white"/>
<path d="M95.9986 39.9999C95.9986 48.2844 89.2831 54.9999 80.9986 54.9999H65.9986V39.9999C65.9986 31.7154 72.7141 24.9999 80.9986 24.9999C89.2831 24.9999 95.9986 31.7154 95.9986 39.9999Z" stroke="white" stroke-width="3" stroke-linecap="round" stroke-linejoin="round"/>
<path d="M73.4972 41.4999L77.9972 45.9999L87.7472 36.2499" stroke="white" stroke-width="3" stroke-linecap="round" stroke-linejoin="round"/>
</svg>
