<svg width="25" height="37" viewBox="0 0 25 37" fill="none" xmlns="http://www.w3.org/2000/svg">
<path d="M21.426 0H3.55611C1.59042 0 0 1.51364 0 3.36364V33.6364C0 35.4864 1.59042 37 3.55611 37H21.426C23.3917 37 25 35.4864 25 33.6364V3.36364C25 1.51364 23.3917 0 21.426 0ZM21.426 28.5909H3.55611V8.40909H21.426V28.5909Z" fill="#6270EF"/>
<path d="M13.7135 14.0747H16.113V16.3203H11.5705C11.4132 16.3203 11.2799 16.375 11.1706 16.4844C11.0612 16.5869 11.0065 16.7134 11.0065 16.8638C11.0065 17.021 11.0612 17.1543 11.1706 17.2637C11.2799 17.373 11.4132 17.4277 11.5705 17.4277H13.9084C14.2912 17.4277 14.6501 17.4927 14.985 17.6226C15.3268 17.7524 15.6242 17.9336 15.8771 18.166C16.13 18.3984 16.3283 18.6753 16.4718 18.9966C16.6222 19.3179 16.6974 19.6699 16.6974 20.0527C16.6974 20.4424 16.6222 20.8081 16.4718 21.1499C16.3283 21.4917 16.13 21.7891 15.8771 22.042C15.6242 22.2881 15.3268 22.4863 14.985 22.6367C14.6501 22.7803 14.2912 22.8521 13.9084 22.8521H13.7135V26H11.8268V22.8521H8.78141V20.627H13.9084C14.0519 20.627 14.1784 20.5723 14.2878 20.4629C14.3971 20.3467 14.4518 20.21 14.4518 20.0527C14.4518 19.8955 14.3971 19.7964 14.2878 19.7554C14.1784 19.7075 14.0519 19.6836 13.9084 19.6836H11.5705C11.1808 19.6836 10.8151 19.6118 10.4733 19.4683C10.1383 19.3179 9.8444 19.1162 9.59147 18.8633C9.34537 18.6035 9.14713 18.3027 8.99674 17.9609C8.85319 17.6191 8.78141 17.2534 8.78141 16.8638C8.78141 16.481 8.85319 16.1221 8.99674 15.7871C9.14713 15.4453 9.34537 15.1479 9.59147 14.895C9.8444 14.6421 10.1383 14.4438 10.4733 14.3003C10.8151 14.1499 11.1808 14.0747 11.5705 14.0747H11.8268V11.2959H13.7135V14.0747Z" fill="#6270EF"/>
</svg>
