<svg width="25" height="37" viewBox="0 0 25 37" fill="none" xmlns="http://www.w3.org/2000/svg">
<path d="M12.5781 13.4546C11.0505 13.4546 9.58542 14.05 8.50522 15.11C7.42502 16.1699 6.81818 17.6075 6.81818 19.1064C6.81818 20.6054 7.42502 22.0429 8.50522 23.1029C9.58542 24.1628 11.0505 24.7582 12.5781 24.7582C14.1057 24.7582 15.5708 24.1628 16.651 23.1029C17.7312 22.0429 18.338 20.6054 18.338 19.1064C18.338 17.6075 17.7312 16.1699 16.651 15.11C15.5708 14.05 14.1057 13.4546 12.5781 13.4546ZM7.52857 19.5334H9.13495C9.16055 20.1049 9.24183 20.6726 9.37815 21.229H7.99576C7.73798 20.6958 7.57974 20.1215 7.52857 19.5334ZM13.0133 16.1423V14.2019C13.6301 14.4319 14.1368 14.8799 14.4341 15.4578C14.5653 15.6758 14.6811 15.9025 14.7797 16.1361L13.0133 16.1423ZM15.0741 16.9901C15.2226 17.5446 15.3109 18.1129 15.3365 18.6857H13.0133V16.9901H15.0741ZM12.1429 14.2019V16.1423H10.3765C10.4753 15.9085 10.5908 15.6819 10.7221 15.4641C11.0181 14.8838 11.5251 14.4334 12.1429 14.2019ZM12.1429 16.9901V18.6857H9.82614C9.85174 18.1129 9.94006 17.5446 10.0885 16.9901H12.1429ZM9.13495 18.6794H7.52857C7.57974 18.0913 7.73798 17.5171 7.99576 16.9838H9.37815C9.24157 17.54 9.16012 18.1078 9.13495 18.6794ZM9.82614 19.5334H12.1429V21.229H10.0885C9.94008 20.6745 9.85212 20.1062 9.82614 19.5334ZM12.1493 22.0454V23.9858C11.5326 23.7558 11.0258 23.3078 10.7285 22.7299C10.5972 22.5121 10.4817 22.2854 10.3829 22.0516L12.1493 22.0454ZM13.0133 23.9858V22.0768H14.7797C14.681 22.3106 14.5655 22.5372 14.4341 22.755C14.1368 23.333 13.6301 23.781 13.0133 24.0109V23.9858ZM13.0133 21.1976V19.502H15.3301C15.3041 20.0748 15.2161 20.6431 15.0677 21.1976H13.0133ZM16.0277 19.502H17.6341C17.5829 20.0901 17.4246 20.6644 17.1669 21.1976H15.7781C15.9125 20.6512 15.9938 20.0942 16.0213 19.5334L16.0277 19.502ZM16.0277 18.6543C15.9984 18.093 15.9148 17.5358 15.7781 16.9901H17.1605C17.4184 17.5239 17.5765 18.0979 17.6277 18.6857L16.0277 18.6543ZM16.6677 16.1423H15.5221C15.3148 15.5711 15.0144 15.0366 14.6325 14.5598C15.4289 14.9106 16.1206 15.4554 16.6421 16.1423H16.6677ZM10.5237 14.5598C10.1419 15.0366 9.84142 15.5711 9.63414 16.1423H8.51416C9.03557 15.4554 9.72734 14.9106 10.5237 14.5598ZM8.50776 22.0956H9.63414C9.84142 22.6669 10.1419 23.2013 10.5237 23.6781C9.72514 23.3221 9.03316 22.7706 8.51416 22.0768L8.50776 22.0956ZM14.6261 23.6781C15.008 23.2013 15.3084 22.6669 15.5157 22.0956H16.6421C16.1175 22.7734 15.426 23.3093 14.6325 23.653L14.6261 23.6781Z" fill="#6270EF"/>
<path d="M21.426 0H3.55611C1.59042 0 0 1.51364 0 3.36364V33.6364C0 35.4864 1.59042 37 3.55611 37H21.426C23.3917 37 25 35.4864 25 33.6364V3.36364C25 1.51364 23.3917 0 21.426 0ZM21.426 28.5909H3.55611V8.40909H21.426V28.5909Z" fill="#6270EF"/>
</svg>
