<svg width="25" height="37" viewBox="0 0 25 37" fill="none" xmlns="http://www.w3.org/2000/svg">
<path d="M21.426 0H3.55611C1.59042 0 0 1.51364 0 3.36364V33.6364C0 35.4864 1.59042 37 3.55611 37H21.426C23.3917 37 25 35.4864 25 33.6364V3.36364C25 1.51364 23.3917 0 21.426 0ZM21.426 28.5909H3.55611V8.40909H21.426V28.5909Z" fill="#6270EF"/>
<g clip-path="url(#clip0_236_2302)">
<path d="M25.5282 29.597C27.2469 29.597 28.6376 28.2869 28.6376 26.6858L28.6532 12.1297C28.6532 10.5139 27.2469 9.21844 25.5282 9.21844H0.528184C-1.20619 9.21844 -2.59682 10.5139 -2.59682 12.1297V26.6858C-2.59682 28.2869 -1.20619 29.597 0.528184 29.597H-5.72182V32.5082H31.7782V29.597H25.5282ZM0.528184 26.6858V12.1297H25.5282V26.6858V26.7003L0.528184 26.6858ZM8.49178 17.8838C8.49178 16.3889 9.79803 15.1706 11.4043 15.1706C13.009 15.1706 14.3168 16.3889 14.3168 17.8838C14.3168 19.3787 13.009 20.5971 11.4043 20.5971C9.79803 20.5971 8.49178 19.3787 8.49178 17.8838ZM19.4793 24.0498L15.6012 20.437C16.1183 19.7019 16.4246 18.8256 16.4246 17.8838C16.4246 15.3045 14.173 13.207 11.4043 13.207C8.63553 13.207 6.3824 15.3045 6.3824 17.8838C6.3824 20.4632 8.63553 22.5622 11.4043 22.5622C12.398 22.5622 13.3183 22.2827 14.098 21.8183L17.9871 25.4399L19.4793 24.0498Z" fill="#6270EF"/>
</g>
<defs>
<clipPath id="clip0_236_2302">
<rect width="16.8367" height="13.5461" fill="white" transform="translate(4.22653 12.6644)"/>
</clipPath>
</defs>
</svg>
