<svg width="41" height="41" viewBox="0 0 41 41" fill="none" xmlns="http://www.w3.org/2000/svg">
<g clip-path="url(#clip0_229_429)">
<path d="M37.5838 13.6666C37.5838 12.727 36.8151 11.9582 35.8755 11.9582H23.9171C22.9776 11.9582 22.2088 12.727 22.2088 13.6666C22.2088 14.6061 22.9776 15.3749 23.9171 15.3749H35.8755C36.8151 15.3749 37.5838 14.6061 37.5838 13.6666ZM22.2088 27.3332C22.2088 28.2728 22.9776 29.0416 23.9171 29.0416H35.8755C36.8151 29.0416 37.5838 28.2728 37.5838 27.3332C37.5838 26.3936 36.8151 25.6249 35.8755 25.6249H23.9171C22.9776 25.6249 22.2088 26.3936 22.2088 27.3332ZM17.8867 7.90948C18.553 8.57573 18.553 9.65198 17.8867 10.3182L10.6605 17.5786C9.99422 18.2449 8.91797 18.2449 8.23464 17.5786L4.61297 13.9399C3.94672 13.2736 3.94672 12.1974 4.61297 11.5311C5.27922 10.8649 6.35547 10.8649 7.02172 11.5311L9.44755 13.957L15.4951 7.90948C16.1442 7.26032 17.2376 7.26032 17.8867 7.90948ZM17.9038 21.5932C18.5701 22.2595 18.5701 23.3357 17.9038 24.002L10.6776 31.2624C10.0113 31.9286 8.93505 31.9286 8.25172 31.2624L4.61297 27.6066C3.94672 26.9403 3.94672 25.8641 4.61297 25.1978C5.27922 24.5316 6.35547 24.5316 7.02172 25.1978L9.44755 27.6236L15.4951 21.5761C16.1442 20.927 17.2376 20.927 17.9038 21.5932Z" fill="white"/>
</g>
<defs>
<clipPath id="clip0_229_429">
<rect width="41" height="41" fill="white"/>
</clipPath>
</defs>
</svg>
