<svg width="33" height="33" viewBox="0 0 33 33" fill="none" xmlns="http://www.w3.org/2000/svg">
<g clip-path="url(#clip0_229_433)">
<path d="M10.8898 10.3675C9.78975 9.9 9.32226 8.53875 9.98226 7.54875C11.316 5.56875 13.5435 4.125 16.486 4.125C19.7173 4.125 21.931 5.59625 23.0585 7.43875C24.021 9.02 24.5848 11.9762 23.0998 14.1762C21.4498 16.61 19.8685 17.3525 19.016 18.92C18.8098 19.2912 18.686 19.5937 18.6035 20.2125C18.4798 21.2162 17.6548 22 16.6373 22C15.441 22 14.4648 20.9687 14.6023 19.7725C14.6848 19.0712 14.8498 18.3425 15.2348 17.655C16.2935 15.7437 18.3285 14.6162 19.511 12.925C20.7623 11.1512 20.061 7.8375 16.5135 7.8375C14.9048 7.8375 13.8598 8.67625 13.2135 9.68C12.7323 10.4637 11.7285 10.7112 10.8898 10.3675ZM19.2498 27.5C19.2498 29.0125 18.0123 30.25 16.4998 30.25C14.9873 30.25 13.7498 29.0125 13.7498 27.5C13.7498 25.9875 14.9873 24.75 16.4998 24.75C18.0123 24.75 19.2498 25.9875 19.2498 27.5Z" fill="white"/>
</g>
<defs>
<clipPath id="clip0_229_433">
<rect width="33" height="33" fill="white"/>
</clipPath>
</defs>
</svg>
