<svg width="29" height="29" viewBox="0 0 29 29" fill="none" xmlns="http://www.w3.org/2000/svg">
<g clip-path="url(#clip0_229_439)">
<path d="M8.45801 21.7501C7.12884 21.7501 6.05342 22.8376 6.05342 24.1667C6.05342 25.4959 7.12884 26.5834 8.45801 26.5834C9.78718 26.5834 10.8747 25.4959 10.8747 24.1667C10.8747 22.8376 9.78718 21.7501 8.45801 21.7501ZM1.20801 3.62508C1.20801 4.28966 1.75176 4.83341 2.41634 4.83341H3.62467L7.97467 14.0047L6.34342 16.953C5.46134 18.5722 6.62134 20.5417 8.45801 20.5417H21.7497C22.4143 20.5417 22.958 19.998 22.958 19.3334C22.958 18.6688 22.4143 18.1251 21.7497 18.1251H8.45801L9.78718 15.7084H18.7893C19.6955 15.7084 20.493 15.213 20.9038 14.4638L25.2297 6.62175C25.6768 5.82425 25.0968 4.83341 24.1784 4.83341H6.29509L5.48551 3.1055C5.29217 2.68258 4.85717 2.41675 4.39801 2.41675H2.41634C1.75176 2.41675 1.20801 2.9605 1.20801 3.62508ZM20.5413 21.7501C19.2122 21.7501 18.1368 22.8376 18.1368 24.1667C18.1368 25.4959 19.2122 26.5834 20.5413 26.5834C21.8705 26.5834 22.958 25.4959 22.958 24.1667C22.958 22.8376 21.8705 21.7501 20.5413 21.7501Z" fill="white"/>
</g>
<defs>
<clipPath id="clip0_229_439">
<rect width="29" height="29" fill="white"/>
</clipPath>
</defs>
</svg>
