<svg width="27" height="23" viewBox="0 0 27 23" fill="none" xmlns="http://www.w3.org/2000/svg">
<path fill-rule="evenodd" clip-rule="evenodd" d="M26.93 2.33399C26.9885 1.97975 26.9507 1.61634 26.8206 1.28161C26.6905 0.946886 26.4729 0.653099 26.1903 0.43086C25.9078 0.208622 25.5707 0.066065 25.2141 0.0180417C24.8576 -0.0299815 24.4947 0.0182862 24.1632 0.157817L1.22984 9.79402C-0.368788 10.4659 -0.450597 12.7732 1.22984 13.4692C2.89381 14.1617 4.58203 14.7947 6.29128 15.367C7.85772 15.8836 9.56632 16.3614 10.9356 16.4965C11.3098 16.9436 11.7805 17.3732 12.2607 17.768C12.9943 18.3702 13.8767 18.9899 14.7887 19.5841C16.6153 20.7753 18.6418 21.9142 20.007 22.6557C21.6392 23.539 23.5932 22.5218 23.8856 20.7458L26.93 2.33399V2.33399ZM3.80079 11.6169L24.0841 3.09552L21.2436 20.2801C19.9038 19.5534 17.9739 18.4653 16.2546 17.3437C15.4621 16.836 14.6971 16.287 13.9626 15.6989C13.7662 15.5388 13.5757 15.3719 13.3912 15.1983L18.7035 9.89842C18.9551 9.64746 19.0966 9.30703 19.0967 8.952C19.0968 8.59697 18.9556 8.25643 18.7041 8.0053C18.4527 7.75417 18.1115 7.61302 17.7558 7.61289C17.4 7.61277 17.0588 7.75368 16.8071 8.00463L10.9906 13.8091C10.0062 13.6833 8.63558 13.3193 7.13083 12.8241C6.01057 12.4517 4.9006 12.0491 3.80214 11.6169H3.80079Z" fill="#6270EF"/>
</svg>
