<svg width="27" height="28" viewBox="0 0 27 28" fill="none" xmlns="http://www.w3.org/2000/svg">
<path d="M13.176 0C11.0405 0 5.75817 0.223107 2.94841 2.9004C0.925377 4.79681 0.138642 7.69721 0.0262517 11.1554C-0.19853 16.6215 1.03777 20.0797 3.0608 21.8645C3.51036 22.1992 4.63427 23.0916 6.76969 23.761V26.5498C6.76969 26.5498 6.76969 27.6653 7.44403 27.8884C7.55642 27.8884 7.66881 28 7.7812 28C8.45555 28 9.0175 27.2191 9.80423 26.4382C10.4786 25.6574 11.0405 25.0996 11.3777 24.5418H13.8503C15.9857 24.5418 21.2681 24.3187 24.0778 21.6414C26.1009 19.6335 26.8876 16.7331 26.8876 13.0518C27 12.494 27 11.8247 27 11.1554C26.8876 7.02789 25.6513 4.23904 23.9655 2.67729C23.2911 2.11952 20.369 0 14.0751 0H13.176ZM12.9512 2.11952H13.9627C19.9194 2.11952 22.1672 4.01594 22.392 4.23904C23.7407 5.35458 24.5274 7.80876 24.6398 11.0438V11.49C24.7522 12.1594 24.7522 12.7171 24.7522 13.0518C24.6398 16.3984 23.9655 18.6295 22.6168 20.0797C20.2566 22.1992 15.3114 22.3108 13.9627 22.3108H11.8273L10.029 24.3187L8.90511 25.5458L8.68033 25.8805C8.45555 26.1036 8.11838 26.5498 7.89359 26.6614V21.6414C5.64578 21.0837 4.74666 20.3028 4.52188 20.0797C2.94841 18.741 2.04928 15.506 2.27406 11.1554V10.0398C2.49885 7.36255 3.17319 5.57769 4.2971 4.3506C6.6573 2.23108 11.6025 2.11952 12.9512 2.11952ZM12.8388 4.57371C12.2768 4.57371 12.2768 5.35458 12.8388 5.35458C16.9972 5.35458 20.5937 8.14343 20.5937 13.3865C20.5937 13.9442 21.3805 13.9442 21.3805 13.3865C21.3805 7.69721 17.5592 4.46215 12.8388 4.57371ZM8.38474 5.60558C8.13009 5.57529 7.87359 5.64494 7.66994 5.79968C6.54603 6.35745 5.421 7.47522 5.75817 8.70231C5.75817 8.70231 5.98295 9.70518 7.21925 11.8247C7.89359 12.8287 8.45555 13.7211 9.0175 14.3904C9.57945 15.1713 10.4786 16.0637 11.3777 16.7331C13.176 18.1833 15.9857 19.6335 17.222 19.9681C18.3459 20.3028 19.5822 19.1873 20.1442 18.0717C20.369 17.6255 20.2566 17.0677 19.807 16.7331C19.1327 16.0637 18.0087 15.2829 17.222 14.8367C16.6601 14.502 15.9857 14.7251 15.7609 15.0598L15.199 15.7291C14.9742 16.0637 14.4122 16.0637 14.4122 16.0637C10.7034 15.0598 9.69184 11.2669 9.69184 11.2669C9.69184 11.2669 9.69184 10.8207 10.029 10.4861L10.7034 9.92829C11.0405 9.70518 11.2653 9.03586 10.9281 8.47809C10.7034 8.14343 10.3662 7.4741 10.029 7.13944C9.69184 6.69323 9.0175 5.91235 9.0175 5.91235C8.84698 5.74287 8.62424 5.63488 8.38474 5.60558ZM13.6255 6.80478C13.0636 6.69323 12.9512 7.58566 13.5131 7.58566C16.6601 7.80877 18.4583 9.92829 18.3459 12.6056C18.2335 13.1633 19.1327 13.1633 19.1327 12.6056C19.245 9.48207 17.222 6.91634 13.6255 6.80478ZM13.9627 8.9243C13.4007 8.81275 13.4007 9.70518 13.9627 9.70518C15.3114 9.70518 15.9857 10.4861 15.9857 11.8247C16.0981 12.3825 16.8848 12.3825 16.8848 11.8247C16.7725 10.0398 15.7609 8.9243 13.9627 8.9243Z" fill="#F5F5F5"/>
</svg>
