<svg width="19" height="19" viewBox="0 0 19 19" fill="none" xmlns="http://www.w3.org/2000/svg">
<path d="M17.9801 3.46338L11.9192 9.52429L17.9801 15.5852C18.6468 16.2519 18.6468 17.3429 17.9801 18.0096C17.3134 18.6763 16.2225 18.6763 15.5558 18.0096L9.49485 11.9487L3.43394 18.0096C2.76724 18.6763 1.67627 18.6763 1.00957 18.0096C0.342873 17.3429 0.342873 16.2519 1.00957 15.5852L7.07049 9.52429L1.00957 3.46338C0.342873 2.79668 0.342873 1.70571 1.00957 1.03901C1.67627 0.37231 2.76724 0.37231 3.43394 1.03901L9.49485 7.09993L15.5558 1.03901C16.2225 0.37231 17.3134 0.37231 17.9801 1.03901C18.6468 1.70571 18.6468 2.79668 17.9801 3.46338Z" fill="#6270EF"/>
</svg>
