<svg width="21" height="11" viewBox="0 0 21 11" fill="none" xmlns="http://www.w3.org/2000/svg">
<path d="M20.125 2C20.125 2.9625 19.3375 3.75 18.375 3.75C18.2175 3.75 18.0688 3.7325 17.9287 3.68875L14.8138 6.795C14.8575 6.935 14.875 7.0925 14.875 7.25C14.875 8.2125 14.0875 9 13.125 9C12.1625 9 11.375 8.2125 11.375 7.25C11.375 7.0925 11.3925 6.935 11.4362 6.795L9.205 4.56375C9.065 4.6075 8.9075 4.625 8.75 4.625C8.5925 4.625 8.435 4.6075 8.295 4.56375L4.31375 8.55375C4.3575 8.69375 4.375 8.8425 4.375 9C4.375 9.9625 3.5875 10.75 2.625 10.75C1.6625 10.75 0.875 9.9625 0.875 9C0.875 8.0375 1.6625 7.25 2.625 7.25C2.7825 7.25 2.93125 7.2675 3.07125 7.31125L7.06125 3.33C7.0175 3.19 7 3.0325 7 2.875C7 1.9125 7.7875 1.125 8.75 1.125C9.7125 1.125 10.5 1.9125 10.5 2.875C10.5 3.0325 10.4825 3.19 10.4388 3.33L12.67 5.56125C12.81 5.5175 12.9675 5.5 13.125 5.5C13.2825 5.5 13.44 5.5175 13.58 5.56125L16.6862 2.44625C16.6425 2.30625 16.625 2.1575 16.625 2C16.625 1.0375 17.4125 0.25 18.375 0.25C19.3375 0.25 20.125 1.0375 20.125 2Z" fill="white"/>
</svg>
