<svg width="21" height="21" viewBox="0 0 21 21" fill="none" xmlns="http://www.w3.org/2000/svg">
<path d="M17.3333 9.64583C17.1068 9.64583 16.8895 9.73582 16.7293 9.89601C16.5692 10.0562 16.4792 10.2735 16.4792 10.5V15.625C16.4792 15.8515 16.3892 16.0688 16.229 16.229C16.0688 16.3892 15.8515 16.4792 15.625 16.4792H5.375C5.14846 16.4792 4.9312 16.3892 4.77101 16.229C4.61083 16.0688 4.52083 15.8515 4.52083 15.625V5.375C4.52083 5.14846 4.61083 4.9312 4.77101 4.77101C4.9312 4.61083 5.14846 4.52083 5.375 4.52083H10.5C10.7265 4.52083 10.9438 4.43084 11.104 4.27065C11.2642 4.11047 11.3542 3.89321 11.3542 3.66667C11.3542 3.44013 11.2642 3.22287 11.104 3.06268C10.9438 2.90249 10.7265 2.8125 10.5 2.8125H5.375C4.69538 2.8125 4.0436 3.08248 3.56304 3.56304C3.08248 4.0436 2.8125 4.69538 2.8125 5.375V15.625C2.8125 16.3046 3.08248 16.9564 3.56304 17.437C4.0436 17.9175 4.69538 18.1875 5.375 18.1875H15.625C16.3046 18.1875 16.9564 17.9175 17.437 17.437C17.9175 16.9564 18.1875 16.3046 18.1875 15.625V10.5C18.1875 10.2735 18.0975 10.0562 17.9373 9.89601C17.7771 9.73582 17.5599 9.64583 17.3333 9.64583Z" fill="white"/>
<path d="M13.9159 4.52083H15.2655L9.8928 9.885C9.81274 9.9644 9.74919 10.0589 9.70583 10.163C9.66246 10.2671 9.64014 10.3787 9.64014 10.4915C9.64014 10.6042 9.66246 10.7159 9.70583 10.8199C9.74919 10.924 9.81274 11.0185 9.8928 11.0979C9.9722 11.178 10.0667 11.2415 10.1708 11.2849C10.2749 11.3282 10.3865 11.3506 10.4993 11.3506C10.612 11.3506 10.7237 11.3282 10.8277 11.2849C10.9318 11.2415 11.0263 11.178 11.1057 11.0979L16.4784 5.73375V7.08333C16.4784 7.30987 16.5684 7.52713 16.7286 7.68732C16.8888 7.84751 17.106 7.9375 17.3326 7.9375C17.5591 7.9375 17.7764 7.84751 17.9366 7.68732C18.0968 7.52713 18.1868 7.30987 18.1868 7.08333V3.66667C18.1868 3.44013 18.0968 3.22287 17.9366 3.06268C17.7764 2.90249 17.5591 2.8125 17.3326 2.8125H13.9159C13.6894 2.8125 13.4721 2.90249 13.3119 3.06268C13.1517 3.22287 13.0618 3.44013 13.0618 3.66667C13.0618 3.89321 13.1517 4.11047 13.3119 4.27065C13.4721 4.43084 13.6894 4.52083 13.9159 4.52083Z" fill="white"/>
</svg>
