<svg width="36" height="36" viewBox="0 0 36 36" fill="none" xmlns="http://www.w3.org/2000/svg">
<path d="M34 16C33.4696 16 32.9609 16.2107 32.5858 16.5858C32.2107 16.9609 32 17.4696 32 18V30C32 30.5304 31.7893 31.0391 31.4142 31.4142C31.0391 31.7893 30.5304 32 30 32H6C5.46957 32 4.96086 31.7893 4.58579 31.4142C4.21071 31.0391 4 30.5304 4 30V6C4 5.46957 4.21071 4.96086 4.58579 4.58579C4.96086 4.21071 5.46957 4 6 4H18C18.5304 4 19.0391 3.78929 19.4142 3.41421C19.7893 3.03914 20 2.53043 20 2C20 1.46957 19.7893 0.960859 19.4142 0.585786C19.0391 0.210714 18.5304 0 18 0H6C4.4087 0 2.88258 0.632141 1.75736 1.75736C0.632141 2.88258 0 4.4087 0 6V30C0 31.5913 0.632141 33.1174 1.75736 34.2426C2.88258 35.3679 4.4087 36 6 36H30C31.5913 36 33.1174 35.3679 34.2426 34.2426C35.3679 33.1174 36 31.5913 36 30V18C36 17.4696 35.7893 16.9609 35.4142 16.5858C35.0391 16.2107 34.5304 16 34 16Z" fill="#6270EF"/>
<path d="M25.9984 4H29.1584L16.5784 16.56C16.391 16.7459 16.2422 16.9671 16.1406 17.2108C16.0391 17.4546 15.9868 17.716 15.9868 17.98C15.9868 18.244 16.0391 18.5054 16.1406 18.7492C16.2422 18.9929 16.391 19.2141 16.5784 19.4C16.7643 19.5875 16.9855 19.7362 17.2293 19.8378C17.473 19.9393 17.7344 19.9916 17.9984 19.9916C18.2624 19.9916 18.5238 19.9393 18.7676 19.8378C19.0113 19.7362 19.2325 19.5875 19.4184 19.4L31.9984 6.84V10C31.9984 10.5304 32.2091 11.0391 32.5842 11.4142C32.9593 11.7893 33.468 12 33.9984 12C34.5288 12 35.0376 11.7893 35.4126 11.4142C35.7877 11.0391 35.9984 10.5304 35.9984 10V2C35.9984 1.46957 35.7877 0.960859 35.4126 0.585786C35.0376 0.210714 34.5288 0 33.9984 0H25.9984C25.468 0 24.9593 0.210714 24.5842 0.585786C24.2091 0.960859 23.9984 1.46957 23.9984 2C23.9984 2.53043 24.2091 3.03914 24.5842 3.41421C24.9593 3.78929 25.468 4 25.9984 4Z" fill="#6270EF"/>
</svg>
