<svg width="24" height="24" viewBox="0 0 24 24" fill="none" xmlns="http://www.w3.org/2000/svg">
<g clip-path="url(#clip0_401_513)">
<path d="M6.30168 5.73474C5.24908 5.30526 4.80173 4.05474 5.43329 3.14526C6.70956 1.32632 8.84107 0 11.6568 0C14.7488 0 16.8671 1.35158 17.946 3.04421C18.8671 4.49684 19.4065 7.21263 17.9855 9.23368C16.4066 11.4695 14.8935 12.1516 14.0777 13.5916C13.8804 13.9326 13.762 14.2105 13.683 14.7789C13.5646 15.7011 12.7752 16.4211 11.8015 16.4211C10.6568 16.4211 9.72262 15.4737 9.8542 14.3747C9.93314 13.7305 10.091 13.0611 10.4594 12.4295C11.4726 10.6737 13.4199 9.63789 14.5514 8.08421C15.7487 6.45474 15.0777 3.41053 11.6831 3.41053C10.1437 3.41053 9.14369 4.18105 8.52529 5.10316C8.06478 5.82316 7.10429 6.05053 6.30168 5.73474ZM14.3014 21.4737C14.3014 22.8632 13.1173 24 11.6699 24C10.2226 24 9.03843 22.8632 9.03843 21.4737C9.03843 20.0842 10.2226 18.9474 11.6699 18.9474C13.1173 18.9474 14.3014 20.0842 14.3014 21.4737Z" fill="white"/>
</g>
<defs>
<clipPath id="clip0_401_513">
<rect width="24" height="24" fill="white"/>
</clipPath>
</defs>
</svg>
